<svg width="20" height="20" fill="none" xmlns="http://www.w3.org/2000/svg"><path d="M10 4.688a3.438 3.438 0 100 6.875 3.438 3.438 0 000-6.876zm0 5a1.563 1.563 0 110-3.126 1.563 1.563 0 010 3.125zm0-8.75a7.195 7.195 0 00-7.188 7.187c0 6.044 6.379 10.578 6.65 10.768a.938.938 0 001.075 0 20.233 20.233 0 003.296-3.047c2.194-2.52 3.354-5.192 3.354-7.721A7.195 7.195 0 0010 .937zm2.445 13.649A19.474 19.474 0 0110 16.945a19.473 19.473 0 01-2.445-2.358c-1.305-1.511-2.867-3.86-2.867-6.462a5.313 5.313 0 0110.625 0c0 2.602-1.563 4.95-2.868 6.462z" fill="#212328"/></svg>